<svg width="217" height="60" viewBox="0 0 217 60" fill="none" xmlns="http://www.w3.org/2000/svg">
<mask id="path-1-outside-1_55_30460" maskUnits="userSpaceOnUse" x="10" y="9" width="196" height="38" fill="black">
<rect fill="white" x="10" y="9" width="196" height="38"/>
<path d="M13.688 44V24.68C14.752 22.664 16.824 21.656 19.904 21.656H24.608L27.548 23.84V27.746H22.004C21.332 27.746 20.898 27.9 20.702 28.208V44H13.688ZM31.1567 36.944V28.712C31.1567 24.008 33.5087 21.656 38.2127 21.656H43.7147V12.92H50.7287V44H38.2127C33.5087 44 31.1567 41.648 31.1567 36.944ZM38.1707 37.364C38.1707 37.728 38.3527 37.91 38.7167 37.91H43.7147V27.746H38.7167C38.3527 27.746 38.1707 27.928 38.1707 28.292V37.364ZM56.4302 44V12.92H63.4442V21.656H68.9462C73.6502 21.656 76.0022 24.008 76.0022 28.712V36.944C76.0022 41.648 73.6502 44 68.9462 44H56.4302ZM63.4442 37.91H68.4422C68.8062 37.91 68.9882 37.728 68.9882 37.364V28.292C68.9882 27.928 68.8062 27.746 68.4422 27.746H63.4442V37.91ZM81.3677 44V19.976C81.3677 15.272 83.7197 12.92 88.4237 12.92H92.7077L95.6477 15.104V19.01H88.9277C88.5637 19.01 88.3817 19.192 88.3817 19.556V21.656H95.2277V27.746H88.3817V44H81.3677ZM99.1646 36.944V21.656H106.179V37.364C106.179 37.728 106.361 37.91 106.725 37.91H111.723V21.656H118.737V44H106.221C101.517 44 99.1646 41.648 99.1646 36.944ZM124.266 36.944V15.02H131.28V21.656H138.126V27.746H131.28V37.364C131.28 37.728 131.462 37.91 131.826 37.91H138.546V41.816L135.606 44H131.322C126.618 44 124.266 41.648 124.266 36.944ZM142.764 36.944V21.656H149.778V37.364C149.778 37.728 149.96 37.91 150.324 37.91H155.322V21.656H162.336V44H149.82C145.116 44 142.764 41.648 142.764 36.944ZM167.866 44V24.68C168.93 22.664 171.002 21.656 174.082 21.656H178.786L181.726 23.84V27.746H176.182C175.51 27.746 175.076 27.9 174.88 28.208V44H167.866ZM191.14 44C186.436 44 184.084 41.718 184.084 37.154C184.084 32.59 186.436 30.308 191.14 30.308H195.97V28.292C195.97 27.928 195.788 27.746 195.424 27.746H186.562V23.84L189.502 21.656H195.928C200.632 21.656 202.984 24.008 202.984 28.712V44H191.14ZM191.098 37.364C191.098 37.728 191.28 37.91 191.644 37.91H195.97V35.6H191.644C191.28 35.6 191.098 35.782 191.098 36.146V37.364Z"/>
</mask>
<path d="M13.688 44H10.688V47H13.688V44ZM13.688 24.68L11.0348 23.2797L10.688 23.9369V24.68H13.688ZM24.608 21.656L26.397 19.2478L25.6004 18.656H24.608V21.656ZM27.548 23.84H30.548V22.3314L29.337 21.4318L27.548 23.84ZM27.548 27.746V30.746H30.548V27.746H27.548ZM20.702 28.208L18.171 26.5974L17.702 27.3344V28.208H20.702ZM20.702 44V47H23.702V44H20.702ZM16.688 44V24.68H10.688V44H16.688ZM16.3412 26.0803C16.7049 25.3911 17.4865 24.656 19.904 24.656V18.656C16.1615 18.656 12.7991 19.9369 11.0348 23.2797L16.3412 26.0803ZM19.904 24.656H24.608V18.656H19.904V24.656ZM22.819 24.0642L25.759 26.2482L29.337 21.4318L26.397 19.2478L22.819 24.0642ZM24.548 23.84V27.746H30.548V23.84H24.548ZM27.548 24.746H22.004V30.746H27.548V24.746ZM22.004 24.746C21.1456 24.746 19.2528 24.8975 18.171 26.5974L23.233 29.8186C22.8866 30.3629 22.4237 30.6015 22.1777 30.6888C21.9612 30.7656 21.8672 30.746 22.004 30.746V24.746ZM17.702 28.208V44H23.702V28.208H17.702ZM20.702 41H13.688V47H20.702V41ZM43.7147 21.656V24.656H46.7147V21.656H43.7147ZM43.7147 12.92V9.92H40.7147V12.92H43.7147ZM50.7287 12.92H53.7287V9.92H50.7287V12.92ZM50.7287 44V47H53.7287V44H50.7287ZM43.7147 37.91V40.91H46.7147V37.91H43.7147ZM43.7147 27.746H46.7147V24.746H43.7147V27.746ZM34.1567 36.944V28.712H28.1567V36.944H34.1567ZM34.1567 28.712C34.1567 26.8224 34.6271 25.9563 35.042 25.5413C35.457 25.1264 36.3232 24.656 38.2127 24.656V18.656C35.3983 18.656 32.7364 19.3616 30.7994 21.2987C28.8624 23.2357 28.1567 25.8976 28.1567 28.712H34.1567ZM38.2127 24.656H43.7147V18.656H38.2127V24.656ZM46.7147 21.656V12.92H40.7147V21.656H46.7147ZM43.7147 15.92H50.7287V9.92H43.7147V15.92ZM47.7287 12.92V44H53.7287V12.92H47.7287ZM50.7287 41H38.2127V47H50.7287V41ZM38.2127 41C36.3232 41 35.457 40.5296 35.042 40.1147C34.6271 39.6997 34.1567 38.8336 34.1567 36.944H28.1567C28.1567 39.7584 28.8624 42.4203 30.7994 44.3573C32.7364 46.2944 35.3983 47 38.2127 47V41ZM35.1707 37.364C35.1707 38.0084 35.3339 39.0428 36.1859 39.8948C37.0379 40.7469 38.0723 40.91 38.7167 40.91V34.91C38.9972 34.91 39.7585 34.9821 40.4285 35.6522C41.0986 36.3222 41.1707 37.0836 41.1707 37.364H35.1707ZM38.7167 40.91H43.7147V34.91H38.7167V40.91ZM46.7147 37.91V27.746H40.7147V37.91H46.7147ZM43.7147 24.746H38.7167V30.746H43.7147V24.746ZM38.7167 24.746C38.0723 24.746 37.0379 24.9091 36.1859 25.7612C35.3339 26.6132 35.1707 27.6476 35.1707 28.292H41.1707C41.1707 28.5724 41.0986 29.3338 40.4285 30.0038C39.7585 30.6739 38.9972 30.746 38.7167 30.746V24.746ZM35.1707 28.292V37.364H41.1707V28.292H35.1707ZM56.4302 44H53.4302V47H56.4302V44ZM56.4302 12.92V9.92H53.4302V12.92H56.4302ZM63.4442 12.92H66.4442V9.92H63.4442V12.92ZM63.4442 21.656H60.4442V24.656H63.4442V21.656ZM63.4442 37.91H60.4442V40.91H63.4442V37.91ZM63.4442 27.746V24.746H60.4442V27.746H63.4442ZM59.4302 44V12.92H53.4302V44H59.4302ZM56.4302 15.92H63.4442V9.92H56.4302V15.92ZM60.4442 12.92V21.656H66.4442V12.92H60.4442ZM63.4442 24.656H68.9462V18.656H63.4442V24.656ZM68.9462 24.656C70.8358 24.656 71.7019 25.1264 72.1169 25.5413C72.5319 25.9563 73.0022 26.8224 73.0022 28.712H79.0022C79.0022 25.8976 78.2966 23.2357 76.3595 21.2987C74.4225 19.3616 71.7607 18.656 68.9462 18.656V24.656ZM73.0022 28.712V36.944H79.0022V28.712H73.0022ZM73.0022 36.944C73.0022 38.8336 72.5319 39.6997 72.1169 40.1147C71.7019 40.5296 70.8358 41 68.9462 41V47C71.7607 47 74.4225 46.2944 76.3595 44.3573C78.2966 42.4203 79.0022 39.7584 79.0022 36.944H73.0022ZM68.9462 41H56.4302V47H68.9462V41ZM63.4442 40.91H68.4422V34.91H63.4442V40.91ZM68.4422 40.91C69.0867 40.91 70.121 40.7469 70.973 39.8948C71.8251 39.0428 71.9882 38.0084 71.9882 37.364H65.9882C65.9882 37.0836 66.0604 36.3222 66.7304 35.6522C67.4004 34.9821 68.1618 34.91 68.4422 34.91V40.91ZM71.9882 37.364V28.292H65.9882V37.364H71.9882ZM71.9882 28.292C71.9882 27.6476 71.8251 26.6132 70.973 25.7612C70.121 24.9091 69.0867 24.746 68.4422 24.746V30.746C68.1618 30.746 67.4004 30.6739 66.7304 30.0038C66.0604 29.3338 65.9882 28.5724 65.9882 28.292H71.9882ZM68.4422 24.746H63.4442V30.746H68.4422V24.746ZM60.4442 27.746V37.91H66.4442V27.746H60.4442ZM81.3677 44H78.3677V47H81.3677V44ZM92.7077 12.92L94.4967 10.5118L93.7001 9.92H92.7077V12.92ZM95.6477 15.104H98.6477V13.5954L97.4367 12.6958L95.6477 15.104ZM95.6477 19.01V22.01H98.6477V19.01H95.6477ZM88.3817 21.656H85.3817V24.656H88.3817V21.656ZM95.2277 21.656H98.2277V18.656H95.2277V21.656ZM95.2277 27.746V30.746H98.2277V27.746H95.2277ZM88.3817 27.746V24.746H85.3817V27.746H88.3817ZM88.3817 44V47H91.3817V44H88.3817ZM84.3677 44V19.976H78.3677V44H84.3677ZM84.3677 19.976C84.3677 18.0864 84.8381 17.2203 85.253 16.8053C85.668 16.3904 86.5342 15.92 88.4237 15.92V9.92C85.6093 9.92 82.9474 10.6256 81.0104 12.5627C79.0734 14.4997 78.3677 17.1616 78.3677 19.976H84.3677ZM88.4237 15.92H92.7077V9.92H88.4237V15.92ZM90.9187 15.3282L93.8587 17.5122L97.4367 12.6958L94.4967 10.5118L90.9187 15.3282ZM92.6477 15.104V19.01H98.6477V15.104H92.6477ZM95.6477 16.01H88.9277V22.01H95.6477V16.01ZM88.9277 16.01C88.2833 16.01 87.2489 16.1731 86.3969 17.0252C85.5449 17.8772 85.3817 18.9116 85.3817 19.556H91.3817C91.3817 19.8364 91.3096 20.5978 90.6395 21.2678C89.9695 21.9379 89.2082 22.01 88.9277 22.01V16.01ZM85.3817 19.556V21.656H91.3817V19.556H85.3817ZM88.3817 24.656H95.2277V18.656H88.3817V24.656ZM92.2277 21.656V27.746H98.2277V21.656H92.2277ZM95.2277 24.746H88.3817V30.746H95.2277V24.746ZM85.3817 27.746V44H91.3817V27.746H85.3817ZM88.3817 41H81.3677V47H88.3817V41ZM99.1646 21.656V18.656H96.1646V21.656H99.1646ZM106.179 21.656H109.179V18.656H106.179V21.656ZM111.723 37.91V40.91H114.723V37.91H111.723ZM111.723 21.656V18.656H108.723V21.656H111.723ZM118.737 21.656H121.737V18.656H118.737V21.656ZM118.737 44V47H121.737V44H118.737ZM102.165 36.944V21.656H96.1646V36.944H102.165ZM99.1646 24.656H106.179V18.656H99.1646V24.656ZM103.179 21.656V37.364H109.179V21.656H103.179ZM103.179 37.364C103.179 38.0084 103.342 39.0428 104.194 39.8948C105.046 40.7469 106.08 40.91 106.725 40.91V34.91C107.005 34.91 107.766 34.9821 108.436 35.6522C109.106 36.3222 109.179 37.0836 109.179 37.364H103.179ZM106.725 40.91H111.723V34.91H106.725V40.91ZM114.723 37.91V21.656H108.723V37.91H114.723ZM111.723 24.656H118.737V18.656H111.723V24.656ZM115.737 21.656V44H121.737V21.656H115.737ZM118.737 41H106.221V47H118.737V41ZM106.221 41C104.331 41 103.465 40.5296 103.05 40.1147C102.635 39.6997 102.165 38.8336 102.165 36.944H96.1646C96.1646 39.7584 96.8702 42.4203 98.8072 44.3573C100.744 46.2944 103.406 47 106.221 47V41ZM124.266 15.02V12.02H121.266V15.02H124.266ZM131.28 15.02H134.28V12.02H131.28V15.02ZM131.28 21.656H128.28V24.656H131.28V21.656ZM138.126 21.656H141.126V18.656H138.126V21.656ZM138.126 27.746V30.746H141.126V27.746H138.126ZM131.28 27.746V24.746H128.28V27.746H131.28ZM138.546 37.91H141.546V34.91H138.546V37.91ZM138.546 41.816L140.335 44.2242L141.546 43.3246V41.816H138.546ZM135.606 44V47H136.598L137.395 46.4082L135.606 44ZM127.266 36.944V15.02H121.266V36.944H127.266ZM124.266 18.02H131.28V12.02H124.266V18.02ZM128.28 15.02V21.656H134.28V15.02H128.28ZM131.28 24.656H138.126V18.656H131.28V24.656ZM135.126 21.656V27.746H141.126V21.656H135.126ZM138.126 24.746H131.28V30.746H138.126V24.746ZM128.28 27.746V37.364H134.28V27.746H128.28ZM128.28 37.364C128.28 38.0084 128.443 39.0428 129.295 39.8948C130.147 40.7469 131.182 40.91 131.826 40.91V34.91C132.107 34.91 132.868 34.9821 133.538 35.6522C134.208 36.3222 134.28 37.0836 134.28 37.364H128.28ZM131.826 40.91H138.546V34.91H131.826V40.91ZM135.546 37.91V41.816H141.546V37.91H135.546ZM136.757 39.4078L133.817 41.5918L137.395 46.4082L140.335 44.2242L136.757 39.4078ZM135.606 41H131.322V47H135.606V41ZM131.322 41C129.433 41 128.566 40.5296 128.151 40.1147C127.736 39.6997 127.266 38.8336 127.266 36.944H121.266C121.266 39.7584 121.972 42.4203 123.909 44.3573C125.846 46.2944 128.508 47 131.322 47V41ZM142.764 21.656V18.656H139.764V21.656H142.764ZM149.778 21.656H152.778V18.656H149.778V21.656ZM155.322 37.91V40.91H158.322V37.91H155.322ZM155.322 21.656V18.656H152.322V21.656H155.322ZM162.336 21.656H165.336V18.656H162.336V21.656ZM162.336 44V47H165.336V44H162.336ZM145.764 36.944V21.656H139.764V36.944H145.764ZM142.764 24.656H149.778V18.656H142.764V24.656ZM146.778 21.656V37.364H152.778V21.656H146.778ZM146.778 37.364C146.778 38.0084 146.941 39.0428 147.793 39.8948C148.645 40.7469 149.68 40.91 150.324 40.91V34.91C150.605 34.91 151.366 34.9821 152.036 35.6522C152.706 36.3222 152.778 37.0836 152.778 37.364H146.778ZM150.324 40.91H155.322V34.91H150.324V40.91ZM158.322 37.91V21.656H152.322V37.91H158.322ZM155.322 24.656H162.336V18.656H155.322V24.656ZM159.336 21.656V44H165.336V21.656H159.336ZM162.336 41H149.82V47H162.336V41ZM149.82 41C147.931 41 147.064 40.5296 146.649 40.1147C146.235 39.6997 145.764 38.8336 145.764 36.944H139.764C139.764 39.7584 140.47 42.4203 142.407 44.3573C144.344 46.2944 147.006 47 149.82 47V41ZM167.866 44H164.866V47H167.866V44ZM167.866 24.68L165.213 23.2797L164.866 23.9369V24.68H167.866ZM178.786 21.656L180.575 19.2478L179.778 18.656H178.786V21.656ZM181.726 23.84H184.726V22.3314L183.515 21.4318L181.726 23.84ZM181.726 27.746V30.746H184.726V27.746H181.726ZM174.88 28.208L172.349 26.5974L171.88 27.3344V28.208H174.88ZM174.88 44V47H177.88V44H174.88ZM170.866 44V24.68H164.866V44H170.866ZM170.519 26.0803C170.883 25.3911 171.664 24.656 174.082 24.656V18.656C170.339 18.656 166.977 19.9369 165.213 23.2797L170.519 26.0803ZM174.082 24.656H178.786V18.656H174.082V24.656ZM176.997 24.0642L179.937 26.2482L183.515 21.4318L180.575 19.2478L176.997 24.0642ZM178.726 23.84V27.746H184.726V23.84H178.726ZM181.726 24.746H176.182V30.746H181.726V24.746ZM176.182 24.746C175.323 24.746 173.431 24.8975 172.349 26.5974L177.411 29.8186C177.064 30.3629 176.601 30.6015 176.355 30.6888C176.139 30.7656 176.045 30.746 176.182 30.746V24.746ZM171.88 28.208V44H177.88V28.208H171.88ZM174.88 41H167.866V47H174.88V41ZM195.97 30.308V33.308H198.97V30.308H195.97ZM186.562 27.746H183.562V30.746H186.562V27.746ZM186.562 23.84L184.773 21.4318L183.562 22.3314V23.84H186.562ZM189.502 21.656V18.656H188.51L187.713 19.2478L189.502 21.656ZM202.984 44V47H205.984V44H202.984ZM195.97 37.91V40.91H198.97V37.91H195.97ZM195.97 35.6H198.97V32.6H195.97V35.6ZM191.14 41C189.228 41 188.35 40.5354 187.937 40.1354C187.542 39.7517 187.084 38.9502 187.084 37.154H181.084C181.084 39.9218 181.803 42.5433 183.759 44.4416C185.699 46.3236 188.348 47 191.14 47V41ZM187.084 37.154C187.084 35.3578 187.542 34.5563 187.937 34.1726C188.35 33.7726 189.228 33.308 191.14 33.308V27.308C188.348 27.308 185.699 27.9844 183.759 29.8664C181.803 31.7647 181.084 34.3862 181.084 37.154H187.084ZM191.14 33.308H195.97V27.308H191.14V33.308ZM198.97 30.308V28.292H192.97V30.308H198.97ZM198.97 28.292C198.97 27.6476 198.807 26.6132 197.955 25.7612C197.103 24.9091 196.069 24.746 195.424 24.746V30.746C195.144 30.746 194.383 30.6739 193.712 30.0038C193.042 29.3338 192.97 28.5724 192.97 28.292H198.97ZM195.424 24.746H186.562V30.746H195.424V24.746ZM189.562 27.746V23.84H183.562V27.746H189.562ZM188.351 26.2482L191.291 24.0642L187.713 19.2478L184.773 21.4318L188.351 26.2482ZM189.502 24.656H195.928V18.656H189.502V24.656ZM195.928 24.656C197.818 24.656 198.684 25.1264 199.099 25.5413C199.514 25.9563 199.984 26.8224 199.984 28.712H205.984C205.984 25.8976 205.279 23.2357 203.342 21.2987C201.405 19.3616 198.743 18.656 195.928 18.656V24.656ZM199.984 28.712V44H205.984V28.712H199.984ZM202.984 41H191.14V47H202.984V41ZM188.098 37.364C188.098 38.0084 188.261 39.0428 189.113 39.8948C189.966 40.7469 191 40.91 191.644 40.91V34.91C191.925 34.91 192.686 34.9821 193.356 35.6522C194.026 36.3222 194.098 37.0836 194.098 37.364H188.098ZM191.644 40.91H195.97V34.91H191.644V40.91ZM198.97 37.91V35.6H192.97V37.91H198.97ZM195.97 32.6H191.644V38.6H195.97V32.6ZM191.644 32.6C191 32.6 189.966 32.7631 189.113 33.6152C188.261 34.4672 188.098 35.5016 188.098 36.146H194.098C194.098 36.4264 194.026 37.1878 193.356 37.8578C192.686 38.5279 191.925 38.6 191.644 38.6V32.6ZM188.098 36.146V37.364H194.098V36.146H188.098Z" fill="url(#paint0_linear_55_30460)" mask="url(#path-1-outside-1_55_30460)"/>
<rect x="1.5" y="1.5" width="214" height="57" rx="6.5" stroke="url(#paint1_linear_55_30460)" stroke-width="3"/>
<defs>
<linearGradient id="paint0_linear_55_30460" x1="11" y1="31.5" x2="206" y2="31.5" gradientUnits="userSpaceOnUse">
<stop stop-color="#FF33EF"/>
<stop offset="1" stop-color="#00C6FF"/>
</linearGradient>
<linearGradient id="paint1_linear_55_30460" x1="0" y1="30" x2="217" y2="30" gradientUnits="userSpaceOnUse">
<stop stop-color="#00C6FF"/>
<stop offset="1" stop-color="#FF33EF"/>
</linearGradient>
</defs>
</svg>
